<svg xmlns="http://www.w3.org/2000/svg" xmlns:xlink="http://www.w3.org/1999/xlink" viewBox="0 0 124.32 143.64"><defs><style>.cls-1{fill:none;}.cls-2{clip-path:url(#clip-path);}.cls-3{fill:#fff;}</style><clipPath id="clip-path" transform="translate(-0.72 16.49)"><circle class="cls-1" cx="57.79" cy="57.79" r="57.79" transform="translate(-11.73 100.76) rotate(-76.72)"/></clipPath></defs><title>LOGOTYPE NOIR</title><g id="Calque_2" data-name="Calque 2"><g id="Calque_1-2" data-name="Calque 1"><g class="cls-2"><path d="M125,124.14v3H.72v-8.92c7.6-.21,15.21-.37,22.8-.18,11.49.29,22.78,2.68,34.27,2.92v3.18Z" transform="translate(-0.72 16.49)"/><path d="M25.88,107.89c11.1,1.22,20.78,8.26,31.91,9.11v3.43c-11.45-.29-22.59-3.17-34-3.55-7.66-.25-15.34-.06-23,.19v-8.92C9.21,107.46,17.72,107,25.88,107.89Z" transform="translate(-0.72 16.49)"/><path d="M65.43,115.89c-.91.18-1.82.31-2.75.4Z" transform="translate(-0.72 16.49)"/><path d="M57.79,112.11v4.22c-11.1-1-20.43-8.78-31.5-10.17-8.23-1-16.92-.5-25.57.27V98.35c9.3-1.14,18.69-2,27.12-.45C38.94,99.9,46.62,110.67,57.79,112.11Z" transform="translate(-0.72 16.49)"/><path d="M57.79,102.84v7.66C46.55,109,39.23,97.8,28.05,95.73c-8.45-1.55-17.94-.67-27.33.52V89.7c9.3-.91,18.69-1.5,27.14,0C38.75,91.51,46.83,101.49,57.79,102.84Z" transform="translate(-0.72 16.49)"/><path d="M57.79,89.55v9.81C47,98.27,38.28,89.68,27.56,88.07,19.08,86.8,9.87,87.12.72,87.73v-4.3c8.62.38,17.24.87,25.81,1.43C37,85.54,47.28,89.4,57.79,89.55Z" transform="translate(-0.72 16.49)"/><path d="M57.79,75.75v9c-19,.86-38.08-1.51-57.07-3.4V77.74C8.81,79.48,16.93,81,25,80.52,36,79.91,46.84,77,57.79,75.75Z" transform="translate(-0.72 16.49)"/><path d="M57.79,64.94v6C46.55,72.55,36,77.35,24.64,78.25,16.7,78.89,8.7,77.14.72,75.07V69.92c7.89,2.23,15.81,4.15,23.72,3.48C36,72.43,46.36,66.65,57.79,64.94Z" transform="translate(-0.72 16.49)"/><path d="M57.79,55.85v5.06c-11.42,1.59-21.93,7.09-33.41,8C16.5,69.55,8.6,67.75.72,65.65V60c7.82,1.83,15.67,3.39,23.5,2.84C35.72,62.08,46.34,57,57.79,55.85Z" transform="translate(-0.72 16.49)"/><path d="M57.79,46.66v4.58c-11.46.65-22.26,5.28-33.74,5.94-7.79.45-15.57-.86-23.33-2.39V49.56c7.7,1.23,15.41,2.29,23.16,1.93C35.3,51,46.37,46.79,57.79,46.66Z" transform="translate(-0.72 16.49)"/><path d="M57.79,37.55v4c-11.34-.3-22.74,3.43-34.07,3.83a145.46,145.46,0,0,1-23-1.51V39.59a167.64,167.64,0,0,0,22.93,1.29C34.94,40.54,46.48,37.09,57.79,37.55Z" transform="translate(-0.72 16.49)"/><path d="M57.79,28.58v3.47c-11.33-.44-22.9,3-34.21,3.37A165.23,165.23,0,0,1,.72,34.13v-3.3a150.74,150.74,0,0,0,22.74,1.43C34.88,31.87,46.36,28.3,57.79,28.58Z" transform="translate(-0.72 16.49)"/><path d="M57.79,19.74v2.94c-11.65.25-23,3.95-34.64,4.43-7.5.3-15-.63-22.43-1.73V22.7c7.4,1.21,14.81,2.22,22.25,1.88C34.73,24.05,46.05,20.32,57.79,19.74Z" transform="translate(-0.72 16.49)"/><path d="M57.79,10.9v2.47C46,14.63,34.49,18.42,22.62,19.06,15.29,19.45,8,18.28.72,16.85V14.53C8,16,15.22,17.24,22.52,16.84,34.4,16.17,46,12.33,57.79,10.9Z" transform="translate(-0.72 16.49)"/><path d="M57.79,1.91v2C45.93,5.47,34.32,9.4,22.41,10.1,15.13,10.51,7.92,9.24.72,7.7V5.58c7.21,1.49,14.43,2.71,21.69,2.3C34.31,7.21,45.94,3.43,57.79,1.91Z" transform="translate(-0.72 16.49)"/><path d="M57.79-7.17v1.52C46-4.54,34.26-1.77,22.41-1.28A113.91,113.91,0,0,1,.72-3V-4.77A125.41,125.41,0,0,0,22.41-3.24C34.25-3.69,46-6.18,57.79-7.17Z" transform="translate(-0.72 16.49)"/><path d="M125-16.45v1c-19-.13-38.06,0-57.07.12l-10.18.07c-19,.14-38,.27-57.07.18v-1.07c19,.05,38.06,0,57.07-.14L68-16.37C87-16.46,106-16.54,125-16.45Z" transform="translate(-0.72 16.49)"/><path class="cls-3" d="M125-11.61V-9c-9.16-1.24-18.34-2.59-27.55-2.27-9.87.34-19.68,2-29.52,3.18-2.7.31-5.39.57-8.09.76-.7,0-1.39.1-2.09.16v-4.44Z" transform="translate(-0.72 16.49)"/><path class="cls-3" d="M125-7.68v6.8c-9.12-1.87-18.27-3.91-27.48-3.43C87.65-3.79,77.83-1.2,68,.51c-2.69.47-5.39.88-8.09,1.16-.7.07-1.39.15-2.09.24V-5.65l2.09-.17c2.7-.21,5.39-.5,8.09-.85,9.84-1.25,19.67-3.14,29.53-3.51C106.71-10.54,115.88-9,125-7.68Z" transform="translate(-0.72 16.49)"/><path class="cls-3" d="M62.68,116.29l-4.89.71v-.67c.69.06,1.39.09,2.09.1A26,26,0,0,0,62.68,116.29Z" transform="translate(-0.72 16.49)"/><path d="M125,118v9.13H57.79v-6.6c11.9-.93,23.61-3.15,35.61-3.46C104,116.82,114.5,117.46,125,118Z" transform="translate(-0.72 16.49)"/><path d="M125,107.24v9.56c-10.48-.66-21-1.42-31.43-1.07-12.11.39-23.84,3.09-35.82,4.22V116c12.79-2.7,24.55-9.8,37.7-11.13C105.13,103.94,115.14,105.59,125,107.24Z" transform="translate(-0.72 16.49)"/><path d="M125,96.72v8.65c-9.79-1.81-19.71-3.61-29.19-2.54-13.34,1.51-25.1,9.5-38.06,12.47v-4.4c13.62-4,25.32-15.52,39.43-17.65C106.17,91.89,115.69,94.27,125,96.72Z" transform="translate(-0.72 16.49)"/><path d="M125,87.7v6.84c-9.27-2.54-18.7-5-27.63-3.64-14.3,2.19-25.88,14.26-39.62,18.39v-7.64c13.69-4,25.5-15.34,39.66-17.45C106.39,82.86,115.79,85.24,125,87.7Z" transform="translate(-0.72 16.49)"/><path d="M125,79.71v5.68c-9.26-2.33-18.64-4.59-27.62-3.33-14.11,2-26,12.4-39.63,16.11V88.31C71.21,85.4,83.37,78.25,97.28,76.89,106.46,76,115.78,77.84,125,79.71Z" transform="translate(-0.72 16.49)"/><path d="M125,71.86V77.1c-9.26-1.63-18.55-3.28-27.83-2.58-13.69,1-26.11,6.53-39.42,9v-9C70.88,72.85,84,70.2,97.08,69.74,106.48,69.41,115.76,70.66,125,71.86Z" transform="translate(-0.72 16.49)"/><path d="M125,63.89v4.73c-9.3-1-18.6-2.09-28-1.89-12.91.28-26.21,1.81-39.24,3.11V64C80.61,62.51,102.5,63,125,63.89Z" transform="translate(-0.72 16.49)"/><path d="M125,56.42V60c-22.39-.76-44.91-1.24-67.25,0V55.57c12.62.24,25.31,1.87,37.88,2C105.51,57.69,115.26,57,125,56.42Z" transform="translate(-0.72 16.49)"/><path d="M125,50.9v2.77c-10.08,1.76-20.13,3.65-30.39,3.21-12.44-.52-24.52-4-36.86-5.23V47.78c12.08,2.32,23.42,7.52,35.84,8.44C104.21,57,114.66,53.86,125,50.9Z" transform="translate(-0.72 16.49)"/><path d="M125,44v3.39c-10.66,4.08-21.51,8.48-32.34,7.35-12.53-1.29-23-8.15-34.91-11.41V39.55c11.79,3.69,21.79,11.39,34.46,12.84C103.32,53.66,114.27,48.6,125,44Z" transform="translate(-0.72 16.49)"/><path d="M125,33.93v4.35c-10.81,4.44-21.87,9.25-32.85,8C79.66,44.91,69.52,37.54,57.79,34V30.24c11.67,3,22.21,9.29,34.45,10.48C103.13,41.79,114.19,37.71,125,33.93Z" transform="translate(-0.72 16.49)"/><path d="M125,21.16v4.37c-10.85,2.1-21.73,4.38-32.67,3.83-11.78-.59-23-4.26-34.58-5.9V20c11.57.83,23,3,34.65,3.33C103.35,23.6,114.19,22.31,125,21.16Z" transform="translate(-0.72 16.49)"/><path d="M125,8.7v3.68c-22.53-.8-44.56-.94-67.25.24V9.74C69.38,8.46,81,6.77,92.62,6.39,103.37,6,114.23,7.38,125,8.7Z" transform="translate(-0.72 16.49)"/><path d="M125-.87V1.07C114.3-.86,103.54-3,92.66-2.49,81-2,69.41.73,57.79,2.5v-2C69.41-1.2,81-3.78,92.65-4.3,103.51-4.79,114.29-2.75,125-.87Z" transform="translate(-0.72 16.49)"/><path d="M125-9v1.32c-10.79-1.36-21.6-2.86-32.45-2.5C81-9.8,69.38-7.92,57.79-6.66V-8.09C69.38-9.22,81-10.93,92.57-11.27,103.43-11.59,114.24-10.23,125-9Z" transform="translate(-0.72 16.49)"/><path d="M125-16.45v1c-22.43-.13-44.84,0-67.25.12v-1C80.2-16.46,102.61-16.54,125-16.45Z" transform="translate(-0.72 16.49)"/></g></g></g></svg>